<?xml version="1.0" standalone="no"?>
<!DOCTYPE svg PUBLIC "-//W3C//DTD SVG 20010904//EN"
 "http://www.w3.org/TR/2001/REC-SVG-20010904/DTD/svg10.dtd">
<svg version="1.0" xmlns="http://www.w3.org/2000/svg"
 width="356.000000pt" height="355.000000pt" viewBox="0 0 356.000000 355.000000"
 preserveAspectRatio="xMidYMid meet">
<metadata>
Created by potrace 1.16, written by Peter Selinger 2001-2019
</metadata>
<g transform="translate(0.000000,355.000000) scale(0.100000,-0.100000)"
fill="#000000" stroke="none">
<path d="M1818 2949 c-28 -16 -22 -47 12 -64 26 -14 30 -21 30 -60 l0 -44
-192 -163 c-195 -165 -220 -196 -180 -217 22 -12 36 -4 156 99 84 70 89 73
102 55 40 -54 42 -170 5 -243 -106 -208 -406 -189 -488 31 -44 119 23 273 142
328 51 23 158 25 210 3 38 -15 38 -15 68 15 l31 30 -60 28 c-85 40 -193 39
-282 -1 -79 -36 -152 -114 -181 -191 -25 -66 -28 -180 -6 -240 22 -59 19 -75
-11 -75 -14 0 -122 25 -240 56 -170 44 -218 53 -230 43 -21 -17 -17 -48 9 -59
47 -21 725 -192 778 -197 144 -14 296 83 349 223 31 83 26 197 -12 274 l-27
54 32 28 c18 15 35 27 38 28 4 0 14 -60 24 -134 l18 -135 -22 -27 c-26 -33
-28 -104 -5 -143 15 -26 15 -30 -1 -55 -14 -21 -24 -27 -42 -23 -45 8 -67 -45
-25 -57 97 -26 124 -28 140 -12 16 16 15 19 -7 37 -33 27 -14 50 35 42 47 -8
109 21 135 64 16 26 20 46 17 89 l-3 56 140 82 c132 78 155 86 155 51 -1 -5
-28 -26 -62 -45 -67 -38 -123 -104 -153 -180 -23 -58 -24 -180 -1 -234 34 -82
22 -89 -103 -57 -40 11 -79 17 -86 15 -17 -7 -26 -30 -19 -49 7 -17 18 -21
269 -86 182 -47 208 -51 285 -47 102 5 158 28 225 89 26 24 59 66 73 94 24 44
27 61 27 150 0 89 -3 106 -28 156 -53 108 -170 187 -292 197 l-63 5 -17 106
c-25 147 -25 147 -88 167 -67 21 -90 14 -85 -23 2 -22 11 -30 37 -39 38 -12
46 -23 55 -77 6 -30 4 -38 -6 -35 -7 2 -113 37 -235 78 -213 71 -221 75 -225
102 -3 16 -3 30 -1 32 2 2 22 -2 44 -8 36 -9 43 -8 55 8 22 31 1 50 -93 80
-48 16 -92 30 -98 32 -5 2 -18 -1 -27 -7z m320 -310 c89 -29 162 -56 162 -59
0 -3 -51 -35 -114 -72 -113 -65 -114 -66 -159 -55 l-45 10 -12 101 c-6 56 -14
110 -17 120 -4 13 -1 17 8 14 8 -3 87 -29 177 -59z m512 -215 c78 -33 146
-126 157 -213 9 -79 -19 -154 -80 -215 -59 -59 -104 -76 -193 -76 -191 1 -315
211 -226 381 27 51 99 119 126 119 9 0 20 -43 35 -127 21 -123 37 -159 65
-150 32 11 30 62 -12 281 l-5 29 49 -8 c27 -4 65 -13 84 -21z"/>
<path d="M862 2458 c-17 -17 -15 -46 6 -57 9 -5 52 -16 95 -26 83 -18 107 -13
107 26 0 24 -7 27 -101 50 -95 22 -92 22 -107 7z"/>
<path d="M385 2041 c-11 -5 -29 -18 -39 -30 -28 -31 -38 -178 -34 -511 3 -268
4 -288 25 -332 32 -71 68 -89 173 -88 47 1 101 -1 121 -5 24 -5 38 -3 45 7 6
8 8 90 4 218 l-5 205 -25 3 c-14 1 -56 -6 -95 -15 l-70 -18 0 -55 0 -55 35 0
35 -1 3 -55 c4 -77 -10 -111 -45 -107 -18 2 -33 14 -47 37 -18 31 -19 53 -19
330 1 318 6 355 45 349 33 -4 48 -44 48 -124 0 -93 9 -101 85 -80 l55 17 0 82
c-1 122 -36 185 -122 222 -39 16 -139 19 -173 6z"/>
<path d="M823 1958 c-12 -19 -15 -307 -6 -608 l8 -265 63 -3 62 -3 0 159 c0
148 1 160 19 165 45 11 59 -31 68 -201 l6 -123 56 3 56 3 -1 147 c-1 127 -4
152 -22 189 l-21 42 24 29 c32 38 38 78 33 211 -7 180 -37 215 -210 251 -93
19 -124 20 -135 4z m177 -133 c24 -13 30 -23 35 -70 10 -79 2 -182 -15 -199
-8 -8 -25 -17 -37 -21 l-23 -6 0 155 c0 86 2 156 5 156 4 0 19 -7 35 -15z"/>
<path d="M1380 1854 c0 -4 -13 -79 -30 -168 -32 -175 -75 -445 -85 -542 l-7
-61 50 -7 c70 -9 82 -2 82 48 0 22 4 46 8 52 8 14 81 36 93 28 4 -2 11 -29 14
-59 8 -63 18 -71 83 -74 30 0 44 4 49 15 3 8 -6 86 -21 172 -14 86 -37 240
-51 342 -36 260 -28 237 -86 249 -56 12 -99 14 -99 5z"/>
<path d="M1690 1768 c0 -51 112 -657 126 -679 2 -4 33 -11 69 -14 77 -9 90 -1
99 58 7 42 50 227 106 451 23 90 27 122 18 127 -14 9 -107 23 -113 18 -1 -2
-22 -96 -45 -209 -23 -113 -43 -206 -45 -208 -6 -7 -16 38 -49 236 -19 111
-39 209 -46 217 -7 8 -28 17 -49 21 -20 3 -44 8 -53 11 -15 3 -18 -2 -18 -29z"/>
<path d="M2217 1684 c-4 -4 -7 -144 -7 -311 l0 -304 68 3 67 3 1 293 c2 291 1
293 -20 301 -35 14 -101 23 -109 15z"/>
<path d="M2438 1624 c-13 -12 -9 -101 5 -111 6 -6 30 -13 51 -16 22 -4 43 -10
47 -14 5 -5 10 -98 11 -208 l3 -200 63 -3 62 -3 0 169 c0 93 3 184 6 202 l7
32 52 -7 c31 -3 56 -2 59 4 8 12 11 89 4 97 -6 6 -231 49 -313 59 -27 4 -53 3
-57 -1z"/>
<path d="M2870 1530 c0 -8 28 -65 62 -129 l62 -116 1 -105 0 -105 50 0 50 0 5
90 c5 88 7 93 63 193 33 57 57 105 55 108 -3 2 -26 8 -52 13 l-47 9 -24 -49
c-14 -26 -29 -50 -34 -54 -5 -3 -24 24 -41 60 -34 70 -46 81 -109 91 -30 5
-41 3 -41 -6z"/>
<path d="M337 933 c-4 -3 -7 -82 -7 -175 l0 -168 70 0 c106 0 154 25 166 87 4
23 0 36 -21 61 l-27 32 21 26 c58 74 -12 144 -145 144 -28 0 -54 -3 -57 -7z"/>
<path d="M729 931 c-2 -6 -3 -85 -1 -176 l3 -166 37 3 37 3 0 170 0 170 -36 3
c-21 2 -39 -2 -40 -7z"/>
<path d="M1063 921 c-59 -27 -96 -86 -96 -154 0 -63 21 -107 69 -143 47 -36
125 -44 179 -19 47 23 53 40 25 70 -21 22 -24 22 -57 9 -75 -32 -148 35 -123
112 20 60 72 79 129 49 26 -13 30 -13 51 10 28 30 22 47 -23 68 -46 22 -102
21 -154 -2z"/>
<path d="M1375 930 c-3 -5 19 -47 50 -92 l55 -83 0 -83 0 -83 38 3 37 3 5 85
c5 83 6 87 58 163 29 42 50 82 47 87 -3 6 -22 10 -41 10 -30 0 -38 -6 -66 -50
-18 -27 -35 -50 -38 -50 -3 0 -20 23 -38 50 -28 44 -36 50 -66 50 -19 0 -38
-4 -41 -10z"/>
<path d="M1885 926 c-115 -51 -140 -202 -49 -288 52 -48 136 -63 193 -34 49
26 55 40 29 71 -23 25 -24 26 -56 10 -95 -48 -178 70 -103 146 33 33 74 38
109 13 21 -14 24 -13 47 12 21 22 23 30 13 42 -33 39 -126 53 -183 28z"/>
<path d="M2235 928 c-3 -8 -4 -86 -3 -173 l3 -160 100 0 100 0 0 35 0 35 -60
5 -60 5 -5 130 -5 130 -33 3 c-20 2 -34 -2 -37 -10z"/>
<path d="M2584 927 c-2 -7 -3 -85 -2 -172 l3 -160 107 -3 106 -3 7 32 c4 17 3
35 -1 39 -5 5 -38 10 -74 12 -62 3 -65 4 -65 28 0 23 4 25 58 28 l58 3 -3 37
-3 37 -58 3 c-54 3 -58 5 -55 25 3 20 10 22 70 25 72 3 87 17 73 62 -6 18 -15
20 -111 20 -76 0 -106 -4 -110 -13z"/>
<path d="M3000 927 c-14 -7 -33 -29 -43 -49 -27 -55 -6 -97 67 -138 66 -38 73
-47 53 -68 -15 -14 -20 -14 -58 3 -40 19 -42 19 -55 0 -24 -33 -17 -55 23 -72
51 -21 126 -13 158 17 60 56 37 132 -55 178 -56 29 -74 55 -45 65 8 4 31 -1
51 -11 35 -16 36 -16 55 7 25 31 21 42 -22 63 -40 21 -94 23 -129 5z"/>
</g>
</svg>
